<?xml version="1.0" encoding="utf-8"?>
<!-- Generator: Adobe Illustrator 25.0.1, SVG Export Plug-In . SVG Version: 6.00 Build 0)  -->
<svg version="1.0"
	 id="svg8" inkscape:version="0.92.2 (5c3e80d, 2017-08-06)" sodipodi:docname="iMessage logo.svg" xmlns:cc="http://creativecommons.org/ns#" xmlns:dc="http://purl.org/dc/elements/1.1/" xmlns:inkscape="http://www.inkscape.org/namespaces/inkscape" xmlns:rdf="http://www.w3.org/1999/02/22-rdf-syntax-ns#" xmlns:sodipodi="http://sodipodi.sourceforge.net/DTD/sodipodi-0.dtd" xmlns:svg="http://www.w3.org/2000/svg"
	 xmlns="http://www.w3.org/2000/svg" xmlns:xlink="http://www.w3.org/1999/xlink" x="0px" y="0px" viewBox="0 0 350.5 258.5"
	 style="enable-background:new 0 0 350.5 258.5;" xml:space="preserve">
<style type="text/css">
	.st0{fill:url(#rect826_1_);}
	.st1{fill:#FFFFFF;}
</style>
<sodipodi:namedview  bordercolor="#666666" borderopacity="1.0" fit-margin-bottom="0" fit-margin-left="0" fit-margin-right="0" fit-margin-top="0" id="base" inkscape:current-layer="layer1" inkscape:cx="142.01984" inkscape:cy="61.975439" inkscape:document-units="px" inkscape:guide-bbox="true" inkscape:pageopacity="0.0" inkscape:pageshadow="2" inkscape:snap-intersection-paths="false" inkscape:snap-object-midpoints="false" inkscape:window-height="1017" inkscape:window-maximized="1" inkscape:window-width="1920" inkscape:window-x="1358" inkscape:window-y="-8" inkscape:zoom="1" pagecolor="#ffffff" showgrid="false" showguides="true">
	</sodipodi:namedview>
<g id="layer1" transform="translate(59.483067,-145.8456)" inkscape:groupmode="layer" inkscape:label="Capa 1">
	<g id="g963">
		
			<linearGradient id="rect826_1_" gradientUnits="userSpaceOnUse" x1="-199.231" y1="295.1869" x2="-199.231" y2="349.7093" gradientTransform="matrix(2.7839 0 0 -2.7839 670.4032 1178.1656)">
			<stop  offset="0" style="stop-color:#0CBD2A"/>
			<stop  offset="1" style="stop-color:#5BF675"/>
		</linearGradient>
		<path id="rect826" class="st0" d="M63.3,181.3h104.9c22.8,0,41.3,18.5,41.3,41.3v104.9c0,22.8-18.5,41.3-41.3,41.3H63.3
			c-22.8,0-41.3-18.5-41.3-41.3V222.6C22,199.8,40.5,181.3,63.3,181.3z"/>
		<path id="path922" inkscape:connector-curvature="0" class="st1" d="M115.8,213.8c-38,0-68.8,25.7-68.8,57.3
			c0,20.1,12.7,38.7,33.4,49.1c-2.7,6.1-6.8,11.8-12,16.8c10.2-1.8,19.8-5.5,28-11c6.3,1.6,12.9,2.4,19.5,2.4
			c38,0,68.8-25.7,68.8-57.3C184.6,239.5,153.8,213.8,115.8,213.8L115.8,213.8z"/>
	</g>
</g>
</svg>
